<?xml version="1.0" encoding="utf-8"?>
<svg viewBox="218.102 193.791 36 23" xmlns="http://www.w3.org/2000/svg">
  <path d="M 245.591 201.076 C 245.591 201.076 252.941 199.907 254.102 196.497 L 242.842 196.497 L 242.842 193.791 L 218.102 193.791 L 221.15 197.358 L 221.15 201.013 C 221.15 201.013 228.84 200.61 231.814 202.885 C 235.886 206.693 227.235 211.839 227.235 211.839 L 225.751 216.791 C 228.071 214.563 232.492 211.68 240.599 211.819 C 237.514 212.803 234.412 214.339 231.997 216.791 L 248.384 216.791 L 246.841 211.839 C 246.841 211.839 234.964 204.774 245.591 201.076 Z" style="fill: rgb(255, 255, 255);" transform="matrix(0.9999999999999999, 0, 0, 0.9999999999999999, 0, 0)"/>
</svg>